# This file uses centimeters as units for non-parametric coordinates.

g default
v -0.500000 -0.500000 0.500000
v 0.500000 -0.500000 0.500000
v -0.500000 0.250000 0.500000
v 0.500000 0.250000 0.500000
v -0.500000 0.250000 -0.500000
v 0.500000 0.250000 -0.500000
v -0.500000 -0.500000 -0.500000
v 0.500000 -0.500000 -0.500000
vt 0.000000 0.125000
vt 1.000000 0.125000
vt 0.000000 0.875000
vt 1.000000 0.875000
vt 0.000000 -0.000000
vt 1.000000 -0.000000
vt 0.000000 1.000000
vt 1.000000 1.000000
vt 0.000000 0.875000
vt 1.000000 0.875000
vt 0.000000 0.125000
vt 1.000000 0.125000
vt 0.000000 1.000000
vt 1.000000 1.000000
vt 0.000000 -0.000000
vt 1.000000 -0.000000
vt 0.000000 0.125000
vt 1.000000 0.125000
vt 0.000000 0.875000
vt 1.000000 0.875000
vt 1.000000 0.125000
vt 0.000000 0.125000
vt 1.000000 0.875000
vt 0.000000 0.875000
vn 0.000000 0.000000 1.000000
vn 0.000000 0.000000 1.000000
vn 0.000000 0.000000 1.000000
vn 0.000000 0.000000 1.000000
vn 0.000000 1.000000 0.000000
vn 0.000000 1.000000 0.000000
vn 0.000000 1.000000 0.000000
vn 0.000000 1.000000 0.000000
vn 0.000000 0.000000 -1.000000
vn 0.000000 0.000000 -1.000000
vn 0.000000 0.000000 -1.000000
vn 0.000000 0.000000 -1.000000
vn 0.000000 -1.000000 0.000000
vn 0.000000 -1.000000 0.000000
vn 0.000000 -1.000000 0.000000
vn 0.000000 -1.000000 0.000000
vn 1.000000 0.000000 0.000000
vn 1.000000 0.000000 0.000000
vn 1.000000 0.000000 0.000000
vn 1.000000 0.000000 0.000000
vn -1.000000 0.000000 0.000000
vn -1.000000 0.000000 0.000000
vn -1.000000 0.000000 0.000000
vn -1.000000 0.000000 0.000000
s 1
g TankWall
f 1/1/1 2/2/2 3/3/3
f 3/3/3 2/2/2 4/4/4
s 2
f 3/5/5 4/6/6 5/7/7
f 5/7/7 4/6/6 6/8/8
s 3
f 5/9/9 6/10/10 7/11/11
f 7/11/11 6/10/10 8/12/12
s 4
f 7/13/13 8/14/14 1/15/15
f 1/15/15 8/14/14 2/16/16
s 5
f 2/17/17 8/18/18 4/19/19
f 4/19/19 8/18/18 6/20/20
s 6
f 7/21/21 1/22/22 5/23/23
f 5/23/23 1/22/22 3/24/24
g default
v -0.500000 -0.500000 0.250000
v -0.500000 0.250000 -0.500000
v -0.500000 -0.305830 0.224447
v -0.500000 -0.124963 0.149529
v -0.500000 0.030352 0.030352
v -0.500000 0.149529 -0.124962
v -0.500000 0.224447 -0.305830
v 0.250000 -0.500000 -0.500000
v -0.305830 0.224447 -0.500000
v -0.124963 0.149529 -0.500000
v 0.030352 0.030352 -0.500000
v 0.149529 -0.124963 -0.500000
v 0.224447 -0.305830 -0.500000
v -0.305830 -0.500000 0.224447
v -0.124963 -0.500000 0.149529
v 0.030352 -0.500000 0.030352
v 0.149529 -0.500000 -0.124962
v 0.224447 -0.500000 -0.305830
v -0.309137 -0.309137 0.199765
v -0.131351 -0.318832 0.127399
v 0.016801 -0.334255 0.016800
v 0.127400 -0.318832 -0.131351
v 0.199765 -0.309137 -0.309137
v 0.127400 -0.131351 -0.318832
v 0.016801 0.016801 -0.334255
v -0.131351 0.127400 -0.318832
v -0.309137 0.199765 -0.309137
v -0.318832 0.127400 -0.131351
v -0.334255 0.016801 0.016800
v -0.318832 -0.131351 0.127399
v -0.150080 -0.150080 0.062519
v -0.022931 -0.179874 -0.022931
v 0.062519 -0.150080 -0.150080
v -0.022931 -0.022931 -0.179874
v -0.150080 0.062519 -0.150080
v -0.179874 -0.022931 -0.022931
v -0.073191 -0.073191 -0.073191
v -0.500075 -0.500075 -0.500075
vt 0.187500 1.000000
vt 0.000000 1.000000
vt 0.000000 0.812500
vt 0.187500 0.812500
vt 0.000000 0.625000
vt 0.187500 0.625000
vt 0.562500 1.000000
vt 0.562500 0.812500
vt 0.375000 1.000000
vt 0.375000 0.812500
vt 0.187500 1.000000
vt 0.187500 0.812500
vt 0.000000 1.000000
vt 0.000000 0.812500
vt 0.000000 0.625000
vt 0.187500 0.625000
vt 0.000000 0.437500
vt 0.562500 0.812500
vt 0.375000 1.000000
vt 0.375000 0.812500
vt 0.187500 1.000000
vt 0.187500 0.812500
vt 0.000000 1.000000
vt 0.000000 0.812500
vt 0.000000 0.625000
vt 0.187500 0.625000
vt 0.000000 0.437500
vt 0.194170 0.724447
vt 0.000075 0.750000
vt -0.000075 -0.000075
vt 0.375037 0.649529
vt 0.530352 0.530352
vt 0.649529 0.375038
vt 0.724447 0.194170
vt 0.750000 0.000075
vt -0.000000 0.750000
vt 0.194170 0.724447
vt -0.000075 -0.000075
vt 0.375037 0.649529
vt 0.530352 0.530352
vt 0.649529 0.375037
vt 0.724447 0.194170
vt 0.750000 0.000075
vt 0.999925 0.750000
vt 0.250000 -0.000000
vt 0.275553 0.194170
vt 1.000075 -0.000075
vt 0.350471 0.375037
vt 0.469648 0.530352
vt 0.624962 0.649529
vt 0.805830 0.724447
vt 0.562500 0.812500
vt 0.375000 1.000000
vt 0.375000 0.812500
vt 0.375000 0.625000
vt 0.546875 0.625000
vt 0.375000 0.625000
vt 0.546875 0.625000
vt 0.375000 0.625000
vt 0.546875 0.625000
vt 0.531250 0.468750
vt 0.375000 0.453125
vt 0.187500 0.437500
vt 0.000000 0.437500
vt 0.375000 0.453125
vt 0.531250 0.468750
vt 0.187500 0.437500
vt 0.562500 1.000000
vt 0.531250 0.468750
vt 0.375000 0.453125
vt 0.187500 0.437500
vt 0.562500 1.000000
vn 0.127566 0.298546 0.945832
vn 0.122218 -0.350092 0.928708
vn 0.254241 0.254241 0.933125
vn 0.263901 -0.480960 0.836082
vn 0.489446 0.241219 0.838007
vn 0.469036 -0.485767 0.737587
vn 0.693787 0.193180 0.693787
vn 0.525715 -0.668766 0.525715
vn 0.737588 -0.485767 0.469036
vn 0.838007 0.241220 0.489445
vn 0.836083 -0.480959 0.263901
vn 0.933125 0.254241 0.254241
vn 0.928708 -0.350091 0.122219
vn 0.945832 0.298545 0.127567
vn 0.838007 0.489446 0.241220
vn 0.837750 0.532734 0.119870
vn 0.693787 0.693787 0.193179
vn 0.702427 0.702427 0.114863
vn 0.532734 0.837750 0.119870
vn 0.489446 0.838007 0.241220
vn 0.298545 0.945832 0.127567
vn 0.254241 0.933125 0.254241
vn 0.129379 0.983119 0.129379
vn 0.127567 0.945832 0.298545
vn 0.241220 0.838007 0.489446
vn 0.119870 0.837750 0.532734
vn 0.193179 0.693787 0.693788
vn 0.114863 0.702426 0.702427
vn 0.119870 0.532734 0.837750
vn 0.241219 0.489446 0.838007
vn 0.467758 0.467758 0.749937
vn 0.642255 0.418349 0.642256
vn 0.749937 0.467757 0.467758
vn 0.642256 0.642256 0.418349
vn 0.467758 0.749937 0.467757
vn 0.418349 0.642255 0.642256
vn 0.577350 0.577350 0.577350
vn 0.000013 -1.000000 0.000100
vn 0.000039 -1.000000 0.000093
vn 0.000061 -1.000000 0.000080
vn 0.000080 -1.000000 0.000061
vn 0.000093 -1.000000 0.000038
vn 0.000100 -1.000000 0.000014
vn -1.000000 0.000014 0.000100
vn -1.000000 0.000014 0.000100
vn -1.000000 0.000014 0.000100
vn -1.000000 0.000038 0.000093
vn -1.000000 0.000038 0.000093
vn -1.000000 0.000038 0.000093
vn -1.000000 0.000061 0.000080
vn -1.000000 0.000061 0.000080
vn -1.000000 0.000061 0.000080
vn -1.000000 0.000080 0.000061
vn -1.000000 0.000080 0.000061
vn -1.000000 0.000080 0.000061
vn -1.000000 0.000093 0.000039
vn -1.000000 0.000093 0.000039
vn -1.000000 0.000093 0.000039
vn -1.000000 0.000100 0.000013
vn -1.000000 0.000100 0.000013
vn -1.000000 0.000100 0.000013
vn 0.000013 0.000100 -1.000000
vn 0.000013 0.000100 -1.000000
vn 0.000013 0.000100 -1.000000
vn 0.000038 0.000093 -1.000000
vn 0.000038 0.000093 -1.000000
vn 0.000038 0.000093 -1.000000
vn 0.000061 0.000080 -1.000000
vn 0.000061 0.000080 -1.000000
vn 0.000061 0.000080 -1.000000
vn 0.000080 0.000061 -1.000000
vn 0.000080 0.000061 -1.000000
vn 0.000080 0.000061 -1.000000
vn 0.000093 0.000039 -1.000000
vn 0.000093 0.000039 -1.000000
vn 0.000093 0.000039 -1.000000
vn 0.000100 0.000013 -1.000000
vn 0.000100 0.000013 -1.000000
vn 0.000100 0.000013 -1.000000
s 1
g TankCorner pCube3
f 11/25/25 9/26/26 27/28/27
f 27/28/27 9/26/26 22/27/28
f 27/28/27 22/27/28 28/30/29
f 28/30/29 22/27/28 23/29/30
f 28/30/29 23/29/30 29/87/31
f 29/87/31 23/29/30 24/88/32
f 24/31/32 25/33/33 29/32/31
f 29/32/31 25/33/33 30/34/34
f 25/33/33 26/35/35 30/34/34
f 30/34/34 26/35/35 31/36/36
f 26/35/35 16/37/37 31/36/36
f 31/36/36 16/37/37 21/38/38
f 31/36/36 21/38/38 32/40/39
f 32/40/39 21/38/38 20/39/40
f 32/40/39 20/39/40 33/91/41
f 33/91/41 20/39/40 19/41/42
f 19/92/42 18/43/43 33/42/41
f 33/42/41 18/43/43 34/44/44
f 18/43/43 17/45/45 34/44/44
f 34/44/44 17/45/45 35/46/46
f 17/45/45 10/47/47 35/46/46
f 35/46/46 10/47/47 15/48/48
f 35/46/46 15/48/48 36/50/49
f 36/50/49 15/48/48 14/49/50
f 36/50/49 14/49/50 37/95/51
f 37/95/51 14/49/50 13/51/52
f 13/96/52 12/77/53 37/76/51
f 37/76/51 12/77/53 38/78/54
f 12/77/53 11/25/25 38/78/54
f 38/78/54 11/25/25 27/28/27
f 38/78/54 27/28/27 39/79/55
f 39/79/55 27/28/27 28/30/29
f 39/79/55 28/30/29 40/86/56
f 40/86/56 28/30/29 29/87/31
f 29/32/31 30/34/34 40/80/56
f 40/80/56 30/34/34 41/81/57
f 30/34/34 31/36/36 41/81/57
f 41/81/57 31/36/36 32/40/39
f 41/81/57 32/40/39 42/89/58
f 42/89/58 32/40/39 33/91/41
f 33/42/41 34/44/44 42/82/58
f 42/82/58 34/44/44 43/83/59
f 34/44/44 35/46/46 43/83/59
f 43/83/59 35/46/46 36/50/49
f 43/83/59 36/50/49 44/94/60
f 44/94/60 36/50/49 37/95/51
f 37/76/51 38/78/54 44/84/60
f 44/84/60 38/78/54 39/79/55
f 44/84/60 39/79/55 45/90/61
f 45/90/61 39/79/55 40/86/56
f 40/80/56 41/81/57 45/85/61
f 45/85/61 41/81/57 42/89/58
f 42/82/58 43/83/59 45/93/61
f 45/93/61 43/83/59 44/94/60
f 22/52/28 9/53/26 46/54/62
f 23/55/30 22/52/28 46/54/63
f 24/56/32 23/55/30 46/54/64
f 25/57/33 24/56/32 46/54/65
f 26/58/35 25/57/33 46/54/66
f 16/59/37 26/58/35 46/54/67
s off
f 9/69/68 11/70/69 46/71/70
f 11/70/71 12/72/72 46/71/73
f 12/72/74 13/73/75 46/71/76
f 13/73/77 14/74/78 46/71/79
f 14/74/80 15/75/81 46/71/82
f 15/75/83 10/68/84 46/71/85
f 10/60/86 17/61/87 46/62/88
f 17/61/89 18/63/90 46/62/91
f 18/63/92 19/64/93 46/62/94
f 19/64/95 20/65/96 46/62/97
f 20/65/98 21/66/99 46/62/100
f 21/66/101 16/67/102 46/62/103
g default
v 0.250000 -0.500075 0.500075
v 0.250000 -0.499925 0.500075
v -0.500075 0.250000 0.500075
v -0.499925 0.250000 0.500075
v 0.224447 -0.305830 0.500075
v 0.149529 -0.124963 0.500075
v 0.030352 0.030352 0.500075
v -0.124963 0.149529 0.500075
v -0.305830 0.224447 0.500075
v 0.250000 -0.500075 -0.499925
v 0.250000 -0.499925 -0.499925
v -0.499925 0.250000 -0.499925
v -0.500075 0.250000 -0.499925
v 0.224447 -0.305830 -0.499925
v 0.149529 -0.124963 -0.499925
v 0.030352 0.030352 -0.499925
v -0.124963 0.149529 -0.499925
v -0.305830 0.224447 -0.499925
v -0.500075 -0.500075 0.500075
v -0.500075 -0.500075 -0.499925
vt 0.749988 0.124987
vt 0.749987 0.125013
vt 0.749987 0.125013
vt 0.749988 0.124987
vt 0.500013 0.374987
vt 0.499988 0.374988
vt 0.499988 0.374988
vt 0.500013 0.374987
vt 0.000034 0.000053
vt 0.187500 0.000000
vt 0.187500 1.000000
vt 0.000094 1.000053
vt 0.375000 0.000000
vt 0.375000 1.000000
vt 0.562500 0.000000
vt 0.437500 1.000000
vt 0.625000 -0.000019
vt 0.625000 1.000000
vt 0.812500 -0.000037
vt 0.812500 0.999963
vt 0.124962 1.000000
vt 0.124962 0.000000
vt 0.124962 1.000000
vt 0.124962 0.000000
vt 0.875037 0.000000
vt 0.875037 1.000000
vt 0.875038 0.125112
vt 0.849484 0.319207
vt 0.124963 0.124962
vt 0.875038 0.124963
vt 0.774567 0.500075
vt 0.655390 0.655390
vt 0.500075 0.774567
vt 0.319207 0.849484
vt 0.125113 0.875037
vt 0.125113 0.875037
vt 0.319207 0.849484
vt 0.124963 0.124962
vt 0.124963 0.875037
vt 0.500075 0.774567
vt 0.849484 0.319207
vt 0.875038 0.125112
vt 0.875038 0.124963
vt 0.774567 0.500075
vt 0.655390 0.655390
vt 0.875037 1.000000
vt 0.875037 0.000000
vt 0.999906 -0.000053
vt 0.999966 0.999947
vt 0.437500 0.000000
vt 0.562500 1.000000
vn 1.000000 0.000000 0.000000
vn 0.999049 0.043592 0.000000
vn 1.000000 0.000000 0.000000
vn 0.996192 0.087183 0.000000
vn 0.087183 0.996192 0.000000
vn 0.000000 1.000000 0.000000
vn 0.043592 0.999049 0.000000
vn 0.000000 1.000000 0.000000
vn 0.976344 0.216222 0.000000
vn 0.953650 0.300918 0.000000
vn 0.887114 0.461551 0.000000
vn 0.843272 0.537488 0.000000
vn 0.737428 0.675426 0.000000
vn 0.675426 0.737428 0.000000
vn 0.537488 0.843272 0.000000
vn 0.461551 0.887114 0.000000
vn 0.300918 0.953650 0.000000
vn 0.216222 0.976344 0.000000
vn 0.000000 -1.000000 0.000000
vn 0.000000 -1.000000 0.000000
vn 0.000000 -1.000000 0.000000
vn 0.000000 -1.000000 0.000000
vn -1.000000 0.000000 0.000000
vn -1.000000 0.000000 0.000000
vn -1.000000 0.000000 0.000000
vn -1.000000 0.000000 0.000000
vn 0.000000 0.000000 1.000000
vn 0.000000 0.000000 1.000000
vn 0.000000 0.000000 1.000000
vn 0.000000 0.000000 1.000000
vn 0.000000 0.000000 1.000000
vn 0.000000 0.000000 1.000000
vn 0.000000 0.000000 1.000000
vn -0.000000 0.000000 1.000000
vn -0.000000 0.000000 1.000000
vn -0.000000 0.000000 1.000000
vn 0.000000 0.000000 1.000000
vn 0.000000 0.000000 1.000000
vn 0.000000 0.000000 1.000000
vn 0.000000 0.000000 1.000000
vn 0.000000 0.000000 1.000000
vn 0.000000 0.000000 1.000000
vn 0.000000 0.000000 1.000000
vn 0.000000 0.000000 1.000000
vn 0.000000 0.000000 1.000000
vn 0.000000 0.000000 -1.000000
vn 0.000000 0.000000 -1.000000
vn 0.000000 0.000000 -1.000000
vn 0.000000 0.000000 -1.000000
vn 0.000000 0.000000 -1.000000
vn 0.000000 0.000000 -1.000000
vn 0.000000 0.000000 -1.000000
vn 0.000000 0.000000 -1.000000
vn 0.000000 0.000000 -1.000000
vn 0.000000 0.000000 -1.000000
vn 0.000000 0.000000 -1.000000
vn -0.000000 0.000000 -1.000000
vn -0.000000 0.000000 -1.000000
vn -0.000000 0.000000 -1.000000
vn 0.000000 0.000000 -1.000000
vn 0.000000 0.000000 -1.000000
vn 0.000000 0.000000 -1.000000
vn -0.000000 0.000000 -1.000000
vn -0.000000 0.000000 -1.000000
vn -0.000000 0.000000 -1.000000
s 1
g pCube3 TankEdge
f 56/97/104 57/98/105 47/100/106
f 47/100/106 57/98/105 48/99/107
f 58/101/108 59/102/109 50/104/110
f 50/104/110 59/102/109 49/103/111
f 57/105/105 60/106/112 48/108/107
f 48/108/107 60/106/112 51/107/113
f 60/106/112 61/109/114 51/107/113
f 51/107/113 61/109/114 52/110/115
f 61/109/114 62/111/116 52/110/115
f 52/110/115 62/111/116 53/147/117
f 62/146/116 63/113/118 53/112/117
f 53/112/117 63/113/118 54/114/119
f 63/113/118 64/115/120 54/114/119
f 54/114/119 64/115/120 55/116/121
f 64/115/120 58/144/108 55/116/121
f 55/116/121 58/144/108 50/145/110
s 3
f 65/119/122 66/120/123 47/122/124
f 47/122/124 66/120/123 56/121/125
s 4
f 49/117/126 59/118/127 65/142/128
f 65/142/128 59/118/127 66/143/129
s 5
f 47/126/130 48/123/131 65/125/132
f 48/123/131 51/124/133 65/125/132
s off
f 51/124/134 52/127/135 65/125/136
f 52/127/137 53/128/138 65/125/139
f 53/128/140 54/129/141 65/125/142
f 54/129/143 55/130/144 65/125/145
f 55/130/146 50/131/147 65/125/148
s 6
f 59/135/149 58/132/150 66/134/151
f 58/132/150 64/133/152 66/134/151
s off
f 64/133/153 63/136/154 66/134/155
s 7
f 56/139/156 66/134/157 57/138/158
f 60/137/159 57/138/158 66/134/157
s off
f 61/140/160 60/137/161 66/134/162
f 62/141/163 61/140/164 66/134/165
f 63/136/166 62/141/167 66/134/168
